# xmcd
#
# Track frame offsets: 
#        187
#        19169
#        37674
#        57519
#        77767
#        99484
#        120402
#        136904
#        156824
#        177709
#        196232
#        210262
#
# Disc length: 2895 seconds
#
# Revision: 6
# Processed by: cddbd v1.5.2PL0 Copyright (c) Steve Scherf et al.
# Submitted via: ExactAudioCopy v1.1
#
DISCID=950b4d0c
DTITLE=Shania Twain - The Woman In Me
DYEAR=1995
DGENRE=Pop
TTITLE0=Home Ain't Where His Heart Is (Anymore)
TTITLE1=Any Man Of Mine
TTITLE2=Whose Bed Have Your Boots Been Under?
TTITLE3=(If You're Not In It For Love) I'm Outta Here!
TTITLE4=The Woman In Me (Needs The Man In You)
TTITLE5=Is There Life After Love?
TTITLE6=If It Don't Take Two
TTITLE7=You Win My Love
TTITLE8=Raining On Our Love
TTITLE9=Leaving Is The Only Way Out
TTITLE10=No One Needs To Know
TTITLE11=God Bless The Child
EXTD=Produced by Robert John "Mutt" Lange\nMercury Records, a PoluGram
EXTD=company YEAR: 1993
EXTT0=
EXTT1=
EXTT2=
EXTT3=
EXTT4=
EXTT5=
EXTT6=
EXTT7=
EXTT8=
EXTT9=
EXTT10=
EXTT11=
PLAYORDER=
